# xmcd
#
# Track frame offsets:
#	150
#	10616
#	22266
#	32751
#	45022
#	53806
#	65004
#	78726
#	88788
#	100523
#	111058
#	124938
#	136039
#	146874
#	159800
#	174542
#	187656
#	199170
#	212118
#	222321
#	233029
#	243386
#	257371
#	268101
#	279612
#	291443
#	304860
#	316559
#	328737
#	339120
#
# Disc length: 4680 seconds
#
# Revision: 1
# Processed by: cddbd v1.5.2PL0 Copyright (c) Steve Scherf et al.
# Submitted via: audiograbber 1.83.01
#
DISCID=a512461e
DTITLE=Various Artist - Kent 30
DYEAR=2012
DGENRE=Soul
TTITLE0=Alexander Patton - (True Love Is) In The Heart
TTITLE1=The Magicians - (Just A Little) Faith And Understanding (Alternate Mix)
TTITLE2=Melba Moore - The Magic Touch (Alternate Vocal)
TTITLE3=Lorraine Chandler - You Only Live Twice
TTITLE4=Little Ann - What Should I Do (Alternate Mix)
TTITLE5=Chuck Jackson - I'd Be A Millionaire
TTITLE6=Ben E. King - Gettin' To Me
TTITLE7=The Fiestas - Think Smart
TTITLE8=Walter Wilson - Love Keeps Me Crying
TTITLE9=The Pied Piper Players - Ooh It Hurts Me (Instrumental)
TTITLE10=Jackie Lee - Oh, My Darlin'
TTITLE11=Marva Holiday - Rising Higher
TTITLE12=The Paramount Four - Sorry Ain't The Word
TTITLE13=The Mayberry Movement - Two Wrongs Don't Make A Right
TTITLE14=Darrow Fletcher - No Limit
TTITLE15=The Quotations - I Wanna Thank You
TTITLE16=Sugar and The Spices - Have Faith In Me
TTITLE17=Toni and The Showmen - Try My Love
TTITLE18=The Sweethearts - Beauty Is Just Skin Deep
TTITLE19=Gene and Gary - Baby Without You
TTITLE20=Bobby Wisdom - Handwriting On The Wall
TTITLE21=Luther Ingram - Oh Baby Don't You Weep
TTITLE22=Johnny Maestro and The Crests - I'm Stepping Out Of The Picture
TTITLE23=O. C. Tolbert - I'm Shooting High (I Reach For The Sky) (Alternate Mix
TTITLE23=)
TTITLE24=Bobby Penn - Without Your Love
TTITLE25=Bobby Angelle - Too Much For You
TTITLE26=Lilly Fields - Changes
TTITLE27=Maxine Brown - It's Torture
TTITLE28=The Shaladons - We Can Do It
TTITLE29=Lou Johnson - The Panic Is On
EXTD=
EXTT0=
EXTT1=
EXTT2=
EXTT3=
EXTT4=
EXTT5=
EXTT6=
EXTT7=
EXTT8=
EXTT9=
EXTT10=
EXTT11=
EXTT12=
EXTT13=
EXTT14=
EXTT15=
EXTT16=
EXTT17=
EXTT18=
EXTT19=
EXTT20=
EXTT21=
EXTT22=
EXTT23=
EXTT24=
EXTT25=
EXTT26=
EXTT27=
EXTT28=
EXTT29=
PLAYORDER=
